%FSTAX23Y23*%
%MOIN*%
%SFA1B1*%

%IPPOS*%
%ADD13C,0.006000*%
%ADD14C,0.023620*%
%ADD15R,0.021650X0.023620*%
%ADD16R,0.023620X0.021650*%
%ADD17R,0.029530X0.015750*%
%ADD18C,0.039370*%
%ADD19R,0.025590X0.037400*%
%LNheart-rate-sensor-pcb-1*%
%LPD*%
G36*
X00013Y00263D02*
X00016Y00261D01*
X00019Y00261*
X0002Y00258*
X00026Y00253*
X00028Y0025*
X00035Y00242*
Y00225*
X00036Y00222*
X00038Y00219*
X00041Y00217*
X00045Y00216*
X00048Y00217*
X00051Y00219*
X00053Y00222*
X00054Y00225*
Y00246*
X00053Y0025*
X00051Y00252*
X00051Y00253*
X00052Y00258*
X00052Y00259*
X00056Y00263*
X00061Y00261*
Y00235*
X00085*
X00085Y00234*
X00087Y00231*
X00095Y00223*
X00096Y00223*
Y00209*
X0007*
X00066Y00208*
X00063Y00206*
X00036Y00179*
X00034Y00176*
X00033Y00172*
Y00171*
X00018*
Y00135*
Y00102*
X0004*
X00042Y001*
X00045Y001*
X00058*
Y00084*
X00068*
Y00057*
X00069Y00053*
X00071Y0005*
X00082Y00039*
Y00018*
X00103*
X00103Y00018*
X00104Y00016*
X00106Y00013*
X00107Y00013*
X00104Y00008*
X00008*
Y00262*
X00013Y00264*
X00013Y00263*
G37*
G36*
X00212Y00338D02*
X00207Y00336D01*
X00206Y00338*
X00203Y00341*
X002Y00343*
X00196Y00344*
X00193Y00343*
X0019Y00341*
X00188Y00338*
X00187Y00335*
X00188Y00331*
X0019Y00328*
X0019Y00327*
Y00299*
X00167*
X00167Y00299*
X00165Y00302*
X0016Y00307*
X00157Y00309*
X00154Y00309*
X00147*
X00143Y00309*
X0014Y00307*
X00139Y00304*
X00138Y003*
X00139Y00297*
X0014Y00294*
X00143Y00292*
X00147Y00291*
X0015*
X0015Y0029*
X00152Y00287*
X00156Y00283*
X00159Y00281*
X00162Y0028*
X002*
X00203Y00281*
X00206Y00283*
X00213Y0029*
X00242*
X00242Y0029*
X00246Y0029*
X00252*
X00255Y00285*
X00253Y00281*
X00251Y00275*
X00253Y00269*
X0025Y00264*
X00233*
X0023Y00263*
X00227Y00261*
X00221Y00255*
X00216Y00257*
Y00274*
X00183*
Y00265*
X00161*
X00157Y00265*
X00155Y00263*
X00144*
X00144Y00264*
X00142Y00267*
X00129Y0028*
Y00327*
X00152Y0035*
X00212*
Y00338*
G37*
G36*
X00401Y00268D02*
X00396Y00266D01*
X00392Y00269*
X00386Y00272*
X0038Y00273*
X00373Y00272*
X00367Y00269*
X00364Y00271*
X00363Y00272*
X00361Y00279*
X00357Y00285*
X00358Y00285*
X00359Y0029*
X00369*
X00373Y0029*
X00376Y00292*
X0038Y00297*
X00383Y00297*
X00386Y00299*
X00388Y00302*
X00389Y00306*
X00388Y00309*
X00386Y00312*
X00347Y00351*
X00344Y00353*
X00341Y00354*
X00259*
X00241Y00372*
X00243Y00376*
X00401*
Y00268*
G37*
G54D13*
X00085Y0017D02*
X00085D01*
X00086Y00169*
X00046Y00129D02*
X00086Y00169D01*
X0024Y002D02*
X00261D01*
X0007D02*
X00115D01*
X00042Y00172D02*
X0007Y002D01*
X00042Y00162D02*
Y00172D01*
X0027Y00275D02*
X00275D01*
X00279Y0027*
X00369Y00299D02*
X00376Y00306D01*
X00246Y00299D02*
X00369D01*
X00245Y003D02*
X00246Y00299D01*
X0021Y003D02*
X00245D01*
X00361Y00253D02*
X00364D01*
X00345Y00272D02*
X0036Y00256D01*
X00361*
X00364Y00253*
X00373*
X0003Y00124D02*
X00038D01*
X00043Y00111D02*
X00045Y00109D01*
X00077*
X00042Y00129D02*
X00046D01*
X00125Y0019D02*
X00145D01*
X00115Y002D02*
X00125Y0019D01*
X00042Y00128D02*
Y00129D01*
X00038Y00124D02*
X00042Y00128D01*
X0003Y00124D02*
X00035Y0012D01*
X00341Y00345D02*
X0038Y00306D01*
X00255Y00345D02*
X00341D01*
X00228Y00372D02*
X00255Y00345D01*
X00143Y00372D02*
X00228D01*
X00116Y00345D02*
X00143Y00372D01*
X00078Y00345D02*
X00116D01*
X0002Y00365D02*
X0006D01*
X00069Y00355*
Y00352D02*
Y00355D01*
Y00352D02*
X00077Y00345D01*
X00078*
X00015Y0036D02*
X0002Y00365D01*
X00015Y00275D02*
Y0036D01*
Y00275D02*
X0002Y0027D01*
X00023*
X00027Y00266*
Y00265D02*
Y00266D01*
Y00265D02*
X00035Y00257D01*
X00045Y00225D02*
Y00246D01*
X00035Y00256D02*
X00045Y00246D01*
X00251Y0032D02*
X00255D01*
X00244Y00327D02*
X00251Y0032D01*
X00237Y00327D02*
X00244D01*
X0023Y00335D02*
X00237Y00327D01*
X00279Y00262D02*
Y0027D01*
Y00262D02*
X00286Y00255D01*
X002Y0029D02*
X0021Y003D01*
X00044Y00345D02*
X0005Y00339D01*
X00035Y00335D02*
X00036Y00336D01*
X00035Y0029D02*
Y00335D01*
X00118Y00015D02*
X00249D01*
X00269Y00035*
X00112Y0002D02*
X00118Y00015D01*
X00112Y0002D02*
Y00022D01*
X00108Y00026D02*
X00112Y00022D01*
X00108Y00026D02*
Y00027D01*
X001Y00035D02*
X00108Y00027D01*
X001Y00035D02*
X001D01*
X00225Y0034D02*
Y00356D01*
X00221Y0036D02*
X00225Y00356D01*
X00148Y0036D02*
X00221D01*
X00225Y0034D02*
X0023Y00335D01*
X0012Y00331D02*
X00148Y0036D01*
X0012Y00276D02*
Y00331D01*
Y00276D02*
X00135Y00261D01*
Y00254D02*
Y00261D01*
Y00254D02*
X0014Y00249D01*
X00147*
X00104Y00288D02*
Y003D01*
Y00288D02*
X00106Y00286D01*
Y00263D02*
Y00286D01*
X00104Y00261D02*
X00106Y00263D01*
X00104Y00259D02*
Y00261D01*
X00099Y00254D02*
X00104Y00259D01*
X00208Y0023D02*
X00233Y00255D01*
X00101Y0023D02*
X00208D01*
X00094Y00237D02*
X00101Y0023D01*
X00346Y00065D02*
X00351Y0007D01*
X00345Y00065D02*
X00346D01*
X00351Y0007D02*
X0038D01*
X00233Y00255D02*
X00286D01*
X00094Y00237D02*
Y00244D01*
X00089Y00249D02*
X00094Y00244D01*
X00082Y00249D02*
X00089D01*
X00152Y00109D02*
Y00147D01*
X00235Y0023*
X00338*
X0038Y00188*
X00338Y00125D02*
X00342Y00129D01*
X00332Y00125D02*
X00338D01*
X00322Y00115D02*
X00332Y00125D01*
X00322Y00109D02*
Y00115D01*
X00342Y00129D02*
X0038D01*
X00247Y0011D02*
X00247Y00109D01*
X00205Y0011D02*
X00247D01*
X00261Y002D02*
X00285D01*
X00213Y00152D02*
X00261Y002D01*
X00212Y00152D02*
X00213D01*
X00205Y00144D02*
X00212Y00152D01*
X00205Y00143D02*
Y00144D01*
X00035Y00154D02*
X00042Y00162D01*
X00035Y00153D02*
Y00154D01*
X00042Y00111D02*
X00043D01*
X00035Y00119D02*
X00042Y00111D01*
X00035Y00119D02*
Y0012D01*
X00077Y00057D02*
X00091Y00043D01*
Y00042D02*
Y00043D01*
Y00042D02*
X00099Y00035D01*
X001*
X00077Y00057D02*
Y00109D01*
X00142Y00043D02*
X00152Y00053D01*
X00142Y00042D02*
Y00043D01*
X00134Y00035D02*
X00142Y00042D01*
X00133Y00035D02*
X00134D01*
X00152Y00053D02*
Y00109D01*
X00312Y00043D02*
X00322Y00053D01*
X00312Y00042D02*
Y00043D01*
X00304Y00035D02*
X00312Y00042D01*
X00303Y00035D02*
X00304D01*
X00322Y00053D02*
Y00109D01*
X00247Y00057D02*
Y00109D01*
Y00057D02*
X00261Y00043D01*
Y00042D02*
Y00043D01*
Y00042D02*
X00269Y00035D01*
X00035Y0029D02*
Y00291D01*
X00036Y00336D02*
Y00337D01*
X00044Y00345*
X00043Y00298D02*
X00045Y003D01*
X00042Y00298D02*
X00043D01*
X00035Y0029D02*
X00042Y00298D01*
X00045Y003D02*
X00082D01*
X00104*
X00087Y00254D02*
X00099D01*
X00082Y00249D02*
X00087Y00254D01*
X00055Y00275D02*
X00082D01*
X00045Y00265D02*
X00055Y00275D01*
X00042Y00265D02*
X00045D01*
X00035Y00257D02*
X00042Y00265D01*
X00035Y00256D02*
Y00257D01*
X00154Y00249D02*
X00161Y00256D01*
X00147Y00249D02*
X00154D01*
X00161Y00256D02*
X002D01*
X00147Y003D02*
X00154D01*
X00159Y00295*
Y00293D02*
Y00295D01*
Y00293D02*
X00162Y0029D01*
X002*
X00196Y00335D02*
X002Y00331D01*
Y0029D02*
Y00331D01*
X00376Y00306D02*
X0038D01*
X0032Y00255D02*
X00359D01*
X00361Y00253*
G54D14*
X00085Y0017D03*
X0024Y002D03*
X0027Y00275D03*
X00345Y00272D03*
X00145Y0019D03*
X00045Y00225D03*
X00255Y0032D03*
X00345Y00065D03*
G54D15*
X00035Y00257D03*
Y0029D03*
X002Y0029D03*
Y00256D03*
X00205Y00143D03*
Y0011D03*
X00035Y00153D03*
Y0012D03*
G54D16*
X00196Y00335D03*
X0023D03*
X00078Y00345D03*
X00045D03*
X00286Y00255D03*
X0032D03*
X0027Y00035D03*
X00303D03*
X001D03*
X00133D03*
G54D17*
X00082Y00249D03*
Y00275D03*
Y003D03*
X00147D03*
Y00249D03*
G54D18*
X0038Y00306D03*
Y0007D03*
Y00129D03*
Y00247D03*
Y00188D03*
G54D19*
X00285Y002D03*
X00247Y00109D03*
X00322D03*
X00115Y002D03*
X00077Y00109D03*
X00152D03*
M02*