%FSTAX23Y23*%
%MOIN*%
%SFA1B1*%

%IPPOS*%
%ADD10R,0.013780X0.029530*%
%ADD13C,0.006000*%
%ADD14C,0.023620*%
%LNheart-rate-sensor-pcb-1*%
%LPD*%
G36*
X00401Y00008D02*
X00008D01*
Y00376*
X00401*
Y00008*
G37*
%LNheart-rate-sensor-pcb-2*%
%LPC*%
G36*
X00284Y00349D02*
X00227D01*
X00224Y00349*
X00221Y00347*
X00151Y00277*
X00149Y00274*
X00148Y00273*
X00129*
Y00235*
X00123*
Y00273*
X00097*
Y00235*
X00045*
X00041Y00234*
X00038Y00232*
X00036Y00229*
X00035Y00225*
X00035Y00225*
X00035Y00225*
Y00128*
X00036Y00125*
X00038Y00122*
X00042Y00118*
X00045Y00116*
X00048Y00115*
X00195*
X00198Y00116*
X00201Y00118*
X00211Y00128*
X00213Y00131*
X00214Y00135*
Y00157*
X00213Y00161*
X00211Y00164*
X00208Y00166*
X00205Y00166*
X00201Y00166*
X00198Y00164*
X00196Y00161*
X00195Y00157*
Y00138*
X00191Y00134*
X0019*
X00186Y00137*
Y00139*
Y00178*
X00198Y0019*
X00224*
X00227Y00187*
X00228Y00186*
X00229Y00179*
X00229Y00178*
X00223*
Y00137*
X00249*
Y00178*
X00247Y00183*
X00247Y00183*
X00252Y00187*
X00256Y00193*
X00258Y002*
X00256Y00206*
X00252Y00212*
X00246Y00216*
X0024Y00218*
X00233Y00216*
X00227Y00212*
X00224Y00209*
X00195*
X00191Y00208*
X00188Y00206*
X00167Y00185*
X00166Y00185*
X00162Y00188*
X00163Y0019*
X00161Y00196*
X00159Y00199*
X00162Y00204*
X00169*
X00173Y00205*
X00176Y00207*
X00199Y00231*
X00201*
X00202Y00231*
X00217*
Y00265*
X00218Y00266*
X00223Y00263*
Y00231*
X00249*
Y00243*
X00255*
Y00231*
X0027*
X00335Y00166*
Y0008*
X00332Y00077*
X00328Y00071*
X00326Y00065*
X00328Y00058*
X00332Y00052*
X00338Y00048*
X00345Y00046*
X00351Y00048*
X00357Y00052*
X00361Y00058*
X00363Y00065*
X00361Y00071*
X00357Y00077*
X00354Y0008*
Y0017*
X00353Y00173*
X00351Y00176*
X00301Y00226*
X00303Y00231*
X00312*
Y00273*
X00289*
X00288Y00275*
X00286Y00281*
X00282Y00287*
X00276Y00291*
X0027Y00293*
X00263Y00291*
X00257Y00287*
X00253Y00281*
X00252Y00276*
X0025Y00274*
X00247Y00273*
X00228*
X00225Y00278*
X0025Y00302*
X00255Y00301*
X00261Y00303*
X00267Y00307*
X00271Y00313*
X00273Y0032*
X00271Y00326*
X00271Y00327*
X00273Y00331*
X0028*
X0033Y00281*
X00328Y00279*
X00326Y00272*
X00328Y00265*
X00332Y00259*
X00338Y00255*
X00345Y00254*
X00351Y00255*
X00357Y00259*
X00361Y00265*
X00363Y00272*
X00361Y00279*
X00357Y00285*
X00351Y00289*
X00348Y00289*
X0029Y00347*
X00287Y00349*
X00284Y00349*
G37*
G36*
X00312Y00178D02*
X00286D01*
Y00137*
X00312*
Y00178*
G37*
G36*
X0028D02*
X00255D01*
Y00137*
X0028*
Y00178*
G37*
%LNheart-rate-sensor-pcb-3*%
%LPD*%
G54D10*
X0011Y00252D03*
X00142D03*
X00173D03*
X00205D03*
X00236D03*
X00267D03*
X00299D03*
Y00157D03*
X00267D03*
X00236D03*
X00205D03*
X00173D03*
X00142D03*
X0011D03*
G54D13*
X00085Y0017D02*
Y00176D01*
X00088Y0018*
X00195Y002D02*
X0024D01*
X0027Y00275D02*
Y00277D01*
X00284Y0034D02*
X00345Y0028D01*
X00157Y0027D02*
X00227Y0034D01*
X00284*
X00268Y00279D02*
X0027Y00277D01*
X00345Y00272D02*
Y0028D01*
X00157Y00266D02*
Y0027D01*
X00154Y00262D02*
X00157Y00266D01*
X00145Y00262D02*
X00154D01*
X00142Y00258D02*
X00145Y00262D01*
X00142Y00252D02*
Y00258D01*
X00088Y0018D02*
X00098D01*
X00132Y00213*
X00169*
X00196Y0024*
X00201*
X00205Y00244*
Y00252*
X00145Y0016D02*
Y0019D01*
X0015Y00225D02*
X00164Y0024D01*
X00045Y00225D02*
X0015D01*
X00164Y0024D02*
X00169D01*
X00173Y00244*
Y00252*
X00045Y00128D02*
Y00225D01*
Y00128D02*
X00048Y00125D01*
X00195*
X00205Y00135*
Y00157*
X00207Y00272D02*
X00255Y0032D01*
X00207Y00254D02*
Y00272D01*
X00205Y00252D02*
X00207Y00254D01*
X00268Y00253D02*
Y00279D01*
X00267Y00252D02*
X00268Y00253D01*
X00236Y00252D02*
X00267D01*
X00345Y00065D02*
Y0017D01*
X00274Y0024D02*
X00345Y0017D01*
X00271Y0024D02*
X00274D01*
X00267Y00244D02*
X00271Y0024D01*
X00267Y00244D02*
Y00252D01*
X00173Y00178D02*
X00195Y002D01*
X00173Y00157D02*
Y00178D01*
X00142Y00157D02*
X00145Y0016D01*
G54D14*
X00085Y0017D03*
X0024Y002D03*
X0027Y00275D03*
X00345Y00272D03*
X00145Y0019D03*
X00045Y00225D03*
X00255Y0032D03*
X00345Y00065D03*
M02*