%FSTAX23Y23*%
%MOIN*%
%SFA1B1*%

%IPPOS*%
%ADD10R,0.013780X0.029530*%
%LNheart-rate-sensor-pcb-1*%
%LPD*%
G36*
X00305Y00239D02*
X00293D01*
Y00265*
X00305*
Y00239*
G37*
G36*
X00274D02*
X00261D01*
Y00265*
X00274*
Y00239*
G37*
G36*
X00242D02*
X0023D01*
Y00265*
X00242*
Y00239*
G37*
G36*
X00211D02*
X00198D01*
Y00265*
X00211*
Y00239*
G37*
G36*
X00179D02*
X00167D01*
Y00265*
X00179*
Y00239*
G37*
G36*
X00148D02*
X00135D01*
Y00265*
X00148*
Y00239*
G37*
G36*
X00116D02*
X00104D01*
Y00265*
X00116*
Y00239*
G37*
G36*
X00305Y00144D02*
X00293D01*
Y0017*
X00305*
Y00144*
G37*
G36*
X00274D02*
X00261D01*
Y0017*
X00274*
Y00144*
G37*
G36*
X00242D02*
X0023D01*
Y0017*
X00242*
Y00144*
G37*
G36*
X00211D02*
X00198D01*
Y0017*
X00211*
Y00144*
G37*
G36*
X00179D02*
X00167D01*
Y0017*
X00179*
Y00144*
G37*
G36*
X00148D02*
X00135D01*
Y0017*
X00148*
Y00144*
G37*
G36*
X00116D02*
X00104D01*
Y0017*
X00116*
Y00144*
G37*
G54D10*
X0011Y00252D03*
X00142D03*
X00173D03*
X00205D03*
X00236D03*
X00267D03*
X00299D03*
Y00157D03*
X00267D03*
X00236D03*
X00205D03*
X00173D03*
X00142D03*
X0011D03*
M02*